<?xml version="1.0" encoding="UTF-8" standalone="no"?>
<!DOCTYPE svg PUBLIC "-//W3C//DTD SVG 1.1//EN"
 "http://www.w3.org/Graphics/SVG/1.1/DTD/svg11.dtd">
<!-- Generated by graphviz version 2.40.1 (20161225.0304)
 -->
<!-- Title: dependencies Pages: 1 -->
<svg width="1405pt" height="284pt"
 viewBox="0.00 0.00 1405.00 284.00" xmlns="http://www.w3.org/2000/svg" xmlns:xlink="http://www.w3.org/1999/xlink">
<g id="graph0" class="graph" transform="scale(1 1) rotate(0) translate(4 280)">
<title>dependencies</title>
<polygon fill="#ffffff" stroke="transparent" points="-4,4 -4,-280 1401,-280 1401,4 -4,4"/>
<text text-anchor="start" x="677.5091" y="-42.4" font-family="sans-serif" font-weight="bold" font-size="14.00" fill="#000000">Legend</text>
<polygon fill="#ffffb3" stroke="transparent" points="464.5,-10 464.5,-30 484.5,-30 484.5,-10 464.5,-10"/>
<text text-anchor="start" x="488.129" y="-15.4" font-family="sans-serif" font-size="14.00" fill="#000000"> &#160;Declarations</text>
<polygon fill="#8dd3c7" stroke="transparent" points="577.5,-10 577.5,-30 597.5,-30 597.5,-10 577.5,-10"/>
<text text-anchor="start" x="601.2251" y="-15.4" font-family="sans-serif" font-size="14.00" fill="#000000"> &#160;Module</text>
<polygon fill="#80b1d3" stroke="transparent" points="663.5,-10 663.5,-30 683.5,-30 683.5,-10 663.5,-10"/>
<text text-anchor="start" x="687.2812" y="-15.4" font-family="sans-serif" font-size="14.00" fill="#000000"> &#160;Bootstrap</text>
<polygon fill="#fdb462" stroke="transparent" points="760.5,-10 760.5,-30 780.5,-30 780.5,-10 760.5,-10"/>
<text text-anchor="start" x="784.1732" y="-15.4" font-family="sans-serif" font-size="14.00" fill="#000000"> &#160;Providers</text>
<polygon fill="#fb8072" stroke="transparent" points="856.5,-10 856.5,-30 876.5,-30 876.5,-10 856.5,-10"/>
<text text-anchor="start" x="880.2258" y="-15.4" font-family="sans-serif" font-size="14.00" fill="#000000"> &#160;Exports</text>
<g id="clust1" class="cluster">
<title>cluster_AppModule</title>
<polygon fill="none" stroke="#000000" stroke-dasharray="1,5" points="8,-70 8,-268 1389,-268 1389,-70 8,-70"/>
</g>
<g id="clust2" class="cluster">
<title>cluster_AppModule_declarations</title>
<polygon fill="none" stroke="#000000" points="168,-78 168,-130 1381,-130 1381,-78 168,-78"/>
</g>
<g id="clust11" class="cluster">
<title>cluster_AppModule_imports</title>
<polygon fill="none" stroke="#000000" points="16,-78 16,-130 160,-130 160,-78 16,-78"/>
</g>
<g id="clust13" class="cluster">
<title>cluster_AppModule_bootstrap</title>
<polygon fill="none" stroke="#000000" points="689,-208 689,-260 813,-260 813,-208 689,-208"/>
</g>
<!-- AppComponent -->
<g id="node1" class="node">
<title>AppComponent</title>
<polygon fill="#ffffb3" stroke="#000000" points="1372.9399,-122 1267.0601,-122 1267.0601,-86 1372.9399,-86 1372.9399,-122"/>
<text text-anchor="middle" x="1320" y="-99.8" font-family="Times,serif" font-size="14.00" fill="#000000">AppComponent</text>
</g>
<!-- AppModule -->
<g id="node9" class="node">
<title>AppModule</title>
<polygon fill="#8dd3c7" stroke="#000000" points="792.6571,-187 789.6571,-191 768.6571,-191 765.6571,-187 709.3429,-187 709.3429,-151 792.6571,-151 792.6571,-187"/>
<text text-anchor="middle" x="751" y="-164.8" font-family="Times,serif" font-size="14.00" fill="#000000">AppModule</text>
</g>
<!-- AppComponent&#45;&gt;AppModule -->
<g id="edge1" class="edge">
<title>AppComponent&#45;&gt;AppModule</title>
<path fill="none" stroke="#000000" d="M1320,-122.0109C1320,-144.4852 1320,-180 1320,-180 1320,-180 802.8399,-180 802.8399,-180"/>
<polygon fill="#000000" stroke="#000000" points="802.84,-176.5001 792.8399,-180 802.8399,-183.5001 802.84,-176.5001"/>
</g>
<!-- GamesComponent -->
<g id="node2" class="node">
<title>GamesComponent</title>
<polygon fill="#ffffb3" stroke="#000000" points="1249.2036,-122 1128.7964,-122 1128.7964,-86 1249.2036,-86 1249.2036,-122"/>
<text text-anchor="middle" x="1189" y="-99.8" font-family="Times,serif" font-size="14.00" fill="#000000">GamesComponent</text>
</g>
<!-- GamesComponent&#45;&gt;AppModule -->
<g id="edge2" class="edge">
<title>GamesComponent&#45;&gt;AppModule</title>
<path fill="none" stroke="#000000" d="M1189,-122.1289C1189,-142.5724 1189,-173 1189,-173 1189,-173 802.9973,-173 802.9973,-173"/>
<polygon fill="#000000" stroke="#000000" points="802.9973,-169.5001 792.9973,-173 802.9972,-176.5001 802.9973,-169.5001"/>
</g>
<!-- HeaderComponent -->
<g id="node3" class="node">
<title>HeaderComponent</title>
<polygon fill="#ffffb3" stroke="#000000" points="1110.7437,-122 989.2563,-122 989.2563,-86 1110.7437,-86 1110.7437,-122"/>
<text text-anchor="middle" x="1050" y="-99.8" font-family="Times,serif" font-size="14.00" fill="#000000">HeaderComponent</text>
</g>
<!-- HeaderComponent&#45;&gt;AppModule -->
<g id="edge3" class="edge">
<title>HeaderComponent&#45;&gt;AppModule</title>
<path fill="none" stroke="#000000" d="M1050,-122.2667C1050,-140.5552 1050,-166 1050,-166 1050,-166 802.8895,-166 802.8895,-166"/>
<polygon fill="#000000" stroke="#000000" points="802.8895,-162.5001 792.8895,-166 802.8895,-169.5001 802.8895,-162.5001"/>
</g>
<!-- NewGameComponent -->
<g id="node4" class="node">
<title>NewGameComponent</title>
<polygon fill="#ffffb3" stroke="#000000" points="971.6867,-122 830.3133,-122 830.3133,-86 971.6867,-86 971.6867,-122"/>
<text text-anchor="middle" x="901" y="-99.8" font-family="Times,serif" font-size="14.00" fill="#000000">NewGameComponent</text>
</g>
<!-- NewGameComponent&#45;&gt;AppModule -->
<g id="edge4" class="edge">
<title>NewGameComponent&#45;&gt;AppModule</title>
<path fill="none" stroke="#000000" d="M901,-122.0091C901,-138.0494 901,-159 901,-159 901,-159 802.7834,-159 802.7834,-159"/>
<polygon fill="#000000" stroke="#000000" points="802.7834,-155.5001 792.7834,-159 802.7833,-162.5001 802.7834,-155.5001"/>
</g>
<!-- PlayersComponent -->
<g id="node5" class="node">
<title>PlayersComponent</title>
<polygon fill="#ffffb3" stroke="#000000" points="812.0409,-122 689.9591,-122 689.9591,-86 812.0409,-86 812.0409,-122"/>
<text text-anchor="middle" x="751" y="-99.8" font-family="Times,serif" font-size="14.00" fill="#000000">PlayersComponent</text>
</g>
<!-- PlayersComponent&#45;&gt;AppModule -->
<g id="edge5" class="edge">
<title>PlayersComponent&#45;&gt;AppModule</title>
<path fill="none" stroke="#000000" d="M751,-122.1061C751,-122.1061 751,-140.991 751,-140.991"/>
<polygon fill="#000000" stroke="#000000" points="747.5001,-140.9909 751,-150.991 754.5001,-140.991 747.5001,-140.9909"/>
</g>
<!-- TeamDetailComponent -->
<g id="node6" class="node">
<title>TeamDetailComponent</title>
<polygon fill="#ffffb3" stroke="#000000" points="671.913,-122 524.087,-122 524.087,-86 671.913,-86 671.913,-122"/>
<text text-anchor="middle" x="598" y="-99.8" font-family="Times,serif" font-size="14.00" fill="#000000">TeamDetailComponent</text>
</g>
<!-- TeamDetailComponent&#45;&gt;AppModule -->
<g id="edge6" class="edge">
<title>TeamDetailComponent&#45;&gt;AppModule</title>
<path fill="none" stroke="#000000" d="M598,-122.0091C598,-138.0494 598,-159 598,-159 598,-159 699.1921,-159 699.1921,-159"/>
<polygon fill="#000000" stroke="#000000" points="699.1921,-162.5001 709.1921,-159 699.192,-155.5001 699.1921,-162.5001"/>
</g>
<!-- TeamPlayersComponent -->
<g id="node7" class="node">
<title>TeamPlayersComponent</title>
<polygon fill="#ffffb3" stroke="#000000" points="506.413,-122 351.587,-122 351.587,-86 506.413,-86 506.413,-122"/>
<text text-anchor="middle" x="429" y="-99.8" font-family="Times,serif" font-size="14.00" fill="#000000">TeamPlayersComponent</text>
</g>
<!-- TeamPlayersComponent&#45;&gt;AppModule -->
<g id="edge7" class="edge">
<title>TeamPlayersComponent&#45;&gt;AppModule</title>
<path fill="none" stroke="#000000" d="M429,-122.2667C429,-140.5552 429,-166 429,-166 429,-166 699.2342,-166 699.2342,-166"/>
<polygon fill="#000000" stroke="#000000" points="699.2343,-169.5001 709.2342,-166 699.2342,-162.5001 699.2343,-169.5001"/>
</g>
<!-- TeamsListingComponent -->
<g id="node8" class="node">
<title>TeamsListingComponent</title>
<polygon fill="#ffffb3" stroke="#000000" points="334.3187,-122 175.6813,-122 175.6813,-86 334.3187,-86 334.3187,-122"/>
<text text-anchor="middle" x="255" y="-99.8" font-family="Times,serif" font-size="14.00" fill="#000000">TeamsListingComponent</text>
</g>
<!-- TeamsListingComponent&#45;&gt;AppModule -->
<g id="edge8" class="edge">
<title>TeamsListingComponent&#45;&gt;AppModule</title>
<path fill="none" stroke="#000000" d="M255,-122.1289C255,-142.5724 255,-173 255,-173 255,-173 699.1388,-173 699.1388,-173"/>
<polygon fill="#000000" stroke="#000000" points="699.1388,-176.5001 709.1388,-173 699.1388,-169.5001 699.1388,-176.5001"/>
</g>
<!-- AppComponent  -->
<g id="node11" class="node">
<title>AppComponent </title>
<polygon fill="#80b1d3" stroke="#000000" points="805.439,-252 696.561,-252 696.561,-216 805.439,-216 805.439,-252"/>
<text text-anchor="middle" x="751" y="-229.8" font-family="Times,serif" font-size="14.00" fill="#000000">AppComponent </text>
</g>
<!-- AppModule&#45;&gt;AppComponent  -->
<g id="edge10" class="edge">
<title>AppModule&#45;&gt;AppComponent </title>
<path fill="none" stroke="#000000" stroke-dasharray="1,5" d="M751,-187.1061C751,-187.1061 751,-205.991 751,-205.991"/>
<polygon fill="#000000" stroke="#000000" points="747.5001,-205.9909 751,-215.991 754.5001,-205.991 747.5001,-205.9909"/>
</g>
<!-- AppRoutingModule -->
<g id="node10" class="node">
<title>AppRoutingModule</title>
<polygon fill="#8dd3c7" stroke="#000000" points="152.2744,-122 149.2744,-126 128.2744,-126 125.2744,-122 23.7256,-122 23.7256,-86 152.2744,-86 152.2744,-122"/>
<text text-anchor="middle" x="88" y="-99.8" font-family="Times,serif" font-size="14.00" fill="#000000">AppRoutingModule</text>
</g>
<!-- AppRoutingModule&#45;&gt;AppModule -->
<g id="edge9" class="edge">
<title>AppRoutingModule&#45;&gt;AppModule</title>
<path fill="none" stroke="#000000" d="M88,-122.0109C88,-144.4852 88,-180 88,-180 88,-180 699.2752,-180 699.2752,-180"/>
<polygon fill="#000000" stroke="#000000" points="699.2753,-183.5001 709.2752,-180 699.2752,-176.5001 699.2753,-183.5001"/>
</g>
</g>
</svg>
